<svg width="26" height="26" viewBox="0 0 26 26" fill="none" xmlns="http://www.w3.org/2000/svg">
<path d="M22.943 7.59485L18.4041 3.05602C18.2721 2.92397 18.1154 2.81922 17.9428 2.74776C17.7703 2.67629 17.5854 2.63951 17.3987 2.63951C17.2119 2.63951 17.027 2.67629 16.8545 2.74776C16.682 2.81922 16.5252 2.92397 16.3932 3.05602L3.86953 15.5807C3.73723 15.7125 3.63233 15.8693 3.56086 16.0418C3.4894 16.2144 3.45278 16.3994 3.45313 16.5862V21.125C3.45313 21.5021 3.60293 21.8638 3.86959 22.1304C4.13624 22.3971 4.4979 22.5469 4.875 22.5469H9.41383C9.60061 22.5472 9.78561 22.5106 9.95817 22.4391C10.1307 22.3677 10.2875 22.2628 10.4193 22.1305L22.943 9.60579C23.075 9.47375 23.1798 9.317 23.2512 9.14448C23.3227 8.97196 23.3595 8.78705 23.3595 8.60032C23.3595 8.41358 23.3227 8.22867 23.2512 8.05616C23.1798 7.88364 23.075 7.72688 22.943 7.59485ZM4.92477 16.25L13.8125 7.36125L15.794 9.34375L6.90625 18.2315L4.92477 16.25ZM4.67188 21.125V17.7206L8.27836 21.3281H4.875C4.82113 21.3281 4.76946 21.3067 4.73137 21.2686C4.69328 21.2305 4.67188 21.1789 4.67188 21.125ZM9.75 21.0752L7.76852 19.0938L16.6563 10.205L18.6377 12.1875L9.75 21.0752ZM22.0807 8.74453L19.5 11.3252L14.6748 6.5L17.2555 3.91829C17.2743 3.8994 17.2967 3.88442 17.3214 3.8742C17.3461 3.86397 17.3725 3.85871 17.3992 3.85871C17.4259 3.85871 17.4523 3.86397 17.477 3.8742C17.5016 3.88442 17.524 3.8994 17.5429 3.91829L22.0807 8.45711C22.0996 8.47598 22.1146 8.49838 22.1248 8.52304C22.135 8.5477 22.1403 8.57413 22.1403 8.60082C22.1403 8.62752 22.135 8.65395 22.1248 8.67861C22.1146 8.70327 22.0996 8.72567 22.0807 8.74453Z" fill="#1E1E1E"/>
</svg>
